{"title":"Guardians.of.the.Galaxy.2014.BDRip.X264.RoSubbed-playSD","uid":11767484,"size":946387423,"categoryP":"video","categoryS":"movies","magnet":"?xt=urn:btih:6f0398cf93ce278c5f155286f7bd85059c93103d&amp;dn=Guardians.of.the.Galaxy.2014.BDRip.X264.RoSubbed-playSD&amp;tr=udp%3A%2F%2Ftracker.openbittorrent.com%3A80&amp;tr=udp%3A%2F%2Fopen.demonii.com%3A1337&amp;tr=udp%3A%2F%2Ftracker.coppersurfer.tk%3A6969&amp;tr=udp%3A%2F%2Fexodus.desync.com%3A6969","seeders":2,"leechers":0,"uploader":"TvTeam","files":5,"time":1426911006,"description":" &lt;a href=&quot;https://www.torrenting.com&quot; rel=&quot;nofollow&quot; target=&quot;_NEW&quot;&gt;https://www.torrenting.com&lt;/a&gt;\n\nSign up is OPEN - for the time being. Come and have fun.\n\n.General\nUnique ID                                : 312896897835139881299542012155618953721 (0xEB65C02112BD2041BF03B2F0190889F9)\nComplete name                            : Guardians.of.the.Galaxy.2014.BDRip.X264.RoSubbed-playSD.mkv\nFormat                                   : Matroska\nFormat version                           : Version 2\nFile size                                : 895 MiB\nDuration                                 : 2h 0mn\nOverall bit rate                         : 1 036 Kbps\nMovie name                               : GUARDIANS_OF_THE_GALAXY_(2014)-.Title1\nWriting application                      : HandBrake 0.10.0 2014112200\nWriting library                          : Lavf55.12.0\n\nVideo\nID                                       : 1\nFormat                                   : AVC\nFormat/Info                              : Advanced Video Codec\nFormat profile                           : &lt;a class=&quot;__cf_email__&quot; href=&quot;/cdn-cgi/l/email-protection&quot; data-cfemail=&quot;0b43626c634b473f253b&quot;&gt;[email&amp;#160;protected]&lt;/a&gt;&lt;script cf-hash='f9e31' type=&quot;text/javascript&quot;&gt;\n/* &lt;![CDATA[ */!function(){try{var t=&quot;currentScript&quot;in document?document.currentScript:function(){for(var t=document.getElementsByTagName(&quot;script&quot;),e=t.length;e--;)if(t[e].getAttribute(&quot;cf-hash&quot;))return t[e]}();if(t&amp;&amp;t.previousSibling){var e,r,n,i,c=t.previousSibling,a=c.getAttribute(&quot;data-cfemail&quot;);if(a){for(e=&quot;&quot;,r=parseInt(a.substr(0,2),16),n=2;a.length-n;n+=2)i=parseInt(a.substr(n,2),16)^r,e+=String.fromCharCode(i);e=document.createTextNode(e),c.parentNode.replaceChild(e,c)}}}catch(u){}}();/* ]]&gt; */&lt;/script&gt;\nFormat settings, CABAC                   : Yes\nFormat settings, ReFrames                : 5 frames\nCodec ID                                 : V_MPEG4/ISO/AVC\nDuration                                 : 2h 0mn\nBit rate                                 : 791 Kbps\nWidth                                    : 720 pixels\nHeight                                   : 300 pixels\nDisplay aspect ratio                     : 2.40:1\nFrame rate mode                          : Constant\nFrame rate                               : 23.976 fps\nColor space                              : YUV\nChroma subsampling                       : 4:2:0\nBit depth                                : 8 bits\nScan type                                : Progressive\nBits/(Pixel*Frame)                       : 0.153\nStream size                              : 684 MiB (76%)\nWriting library                          : x264 core 142 r2479 dd79a61\nEncoding settings                        : cabac=1 / ref=5 / deblock=1:-2:-2 / analyse=0x3:0x133 / me=umh / subme=9 / psy=1 / psy_rd=1.00:0.15 / mixed_ref=1 / me_range=16 / chroma_me=1 / trellis=2 / 8x8dct=1 / cqm=0 / deadzone=21,11 / fast_pskip=0 / chroma_qp_offset=-3 / threads=7 / lookahead_threads=1 / sliced_threads=0 / nr=0 / decimate=1 / interlaced=0 / bluray_compat=0 / constrained_intra=0 / bframes=5 / b_pyramid=2 / b_adapt=2 / b_bias=0 / direct=3 / weightb=1 / open_gop=0 / weightp=1 / keyint=240 / keyint_min=24 / scenecut=40 / intra_refresh=0 / rc_lookahead=50 / rc=crf / mbtree=1 / crf=19.0 / qcomp=0.60 / qpmin=0 / qpmax=69 / qpstep=4 / vbv_maxrate=25000 / vbv_bufsize=31250 / crf_max=0.0 / nal_hrd=none / filler=0 / ip_ratio=1.40 / aq=1:1.00\nDefault                                  : Yes\nForced                                   : No\nColor primaries                          : BT.709\nTransfer characteristics                 : BT.709\nMatrix coefficients                      : BT.709\nColor range                              : Limited\n\nAudio\nID                                       : 2\nFormat                                   : AC-3\nFormat/Info                              : Audio Coding 3\nMode extension                           : CM (complete main)\nFormat settings, Endianness              : Big\nCodec ID                                 : A_AC3\nDuration                                 : 2h 0mn\nBit rate mode                            : Constant\nBit rate                                 : 224 Kbps\nChannel(s)                               : 6 channels\nChannel positions                        : Front: L C R, Side: L R, LFE\nSampling rate                            : 48.0 KHz\nBit depth                                : 16 bits\nCompression mode                         : Lossy\nDelay relative to video                  : 27ms\nStream size                              : 194 MiB (22%)\nTitle                                    : Surround\nLanguage                                 : English\nDefault                                  : Yes\nForced                                   : No\n\nMenu\n00:00:00.000                             : :(01)00:00:00:000\n00:04:05.787                             : :(02)00:04:05:703\n00:11:21.890                             : :(03)00:11:21:806\n00:15:21.796                             : :(04)00:15:21:712\n00:20:54.503                             : :(05)00:20:54:419\n00:27:11.296                             : :(06)00:27:11:212\n00:33:58.912                             : :(07)00:33:58:828\n00:44:28.416                             : :(08)00:44:28:290\n00:50:53.092                             : :(09)00:50:53:008\n00:55:17.648                             : :(10)00:55:17:564\n00:59:45.290                             : :(11)00:59:45:206\n01:06:07.005                             : :(12)01:06:06:921\n01:14:46.107                             : :(13)01:14:46:023\n01:22:20.727                             : :(14)01:22:20:644\n01:26:29.810                             : :(15)01:26:29:725\n01:30:23.960                             : :(16)01:30:23:876\n01:35:58.461                             : :(17)01:35:58:377\n01:40:46.958                             : :(18)01:40:46:749\n01:47:35.449                             : :(19)01:47:35:365\n01:53:16.707                             : :(20)01:53:16:623\n02:00:10.995                             : :(21)02:00:10:828","torrent":{"xt":"urn:btih:6f0398cf93ce278c5f155286f7bd85059c93103d","amp;dn":"Guardians.of.the.Galaxy.2014.BDRip.X264.RoSubbed-playSD","amp;tr":["udp%3A%2F%2Ftracker.openbittorrent.com%3A80","udp%3A%2F%2Fopen.demonii.com%3A1337","udp%3A%2F%2Ftracker.coppersurfer.tk%3A6969","udp%3A%2F%2Fexodus.desync.com%3A6969"],"infoHash":"6f0398cf93ce278c5f155286f7bd85059c93103d","infoHashBuffer":{"type":"Buffer","data":[111,3,152,207,147,206,39,140,95,21,82,134,247,189,133,5,156,147,16,61]},"announce":[],"urlList":[]}}